<svg width="24" height="24" viewBox="0 0 24 24" fill="none" xmlns="http://www.w3.org/2000/svg">
<path d="M14.716 18.5448C14.716 17.1888 13.6603 16.0896 12.358 16.0896C11.0557 16.0896 10 17.1888 10 18.5448C10 19.9008 11.0557 21 12.358 21C13.6603 21 14.716 19.9008 14.716 18.5448Z" fill="white"/>
<path d="M14.716 5.45496C14.716 4.09899 13.6603 2.99976 12.358 2.99976C11.0557 2.99976 10 4.09899 10 5.45496C10 6.81093 11.0557 7.91016 12.358 7.91016C13.6603 7.91016 14.716 6.81093 14.716 5.45496Z" fill="white"/>
<path d="M14.716 11.9999C14.716 10.6439 13.6603 9.54468 12.358 9.54468C11.0557 9.54468 10 10.6439 10 11.9999C10 13.3558 11.0557 14.4551 12.358 14.4551C13.6603 14.4551 14.716 13.3558 14.716 11.9999Z" fill="white"/>
</svg>
